# xmcd
#
# Track frame offsets: 
#        150
#        15280
#        27357
#        41255
#        54475
#        71680
#        86222
#        98570
#        113745
#        129670
#        140272
#        157975
#
# Disc length: 2280 seconds
#
# Revision: 2
# Processed by: cddbd v1.5.2PL0 Copyright (c) Steve Scherf et al.
# Submitted via: ExactAudioCopy v0.99pb5
#
DISCID=9008e60c
DTITLE=Dolly Parton - Country Legends
DYEAR=2002
DGENRE=Country
TTITLE0=Tenessee Homesick Blues
TTITLE1=Jolene
TTITLE2=Coat Of Many Colors
TTITLE3=Here You Come Again
TTITLE4=Hard Candy Christmas
TTITLE5=It's All Wrong, But It's Alright
TTITLE6=9 To 5
TTITLE7=You're The Only One
TTITLE8=Heartbreaker
TTITLE9=Love Is Like A Butterfly
TTITLE10=Starting Over Again
TTITLE11=I Will Always Love You
EXTD=YEAR: 2002
EXTT0=
EXTT1=
EXTT2=
EXTT3=
EXTT4=
EXTT5=
EXTT6=
EXTT7=
EXTT8=
EXTT9=
EXTT10=
EXTT11=
PLAYORDER=
